<svg width="250" height="52" viewBox="0 0 250 52" fill="none" xmlns="http://www.w3.org/2000/svg">
<path d="M216.251 38.1963C215.984 38.1963 215.771 38.3298 215.637 38.4899C211.74 37.1553 207.71 36.2478 203.573 35.7674C209.765 34.9399 215.931 33.6054 222.017 31.6836C232.48 32.8046 252.765 27.0126 249.482 12.9195C249.375 12.4657 248.842 12.1721 248.414 12.3056C237.364 15.5886 226.421 19.619 220.629 30.2956C191.588 39.1038 161.347 34.2726 131.719 28.8543C134.896 27.7066 138.072 26.6389 141.302 25.678C141.489 25.678 141.702 25.6513 141.862 25.4912C141.889 25.4912 141.942 25.4912 141.969 25.4645C142.049 25.678 142.236 25.8382 142.503 25.9182C153.713 28.8543 168.18 26.3186 173.945 15.1883C174.159 14.7879 174.025 14.4142 173.785 14.174C173.785 13.7469 173.518 13.2932 172.958 13.2932C165.965 13.1597 159.158 14.1206 152.592 16.5228C148.241 18.1243 143.277 19.9127 140.821 24.0231C136.631 25.2509 132.467 26.6656 128.356 28.2404C122.591 27.1727 116.852 26.1051 111.14 25.1442C103.133 23.7829 95.1522 22.822 87.2515 22.2348C85.8903 21.7811 84.529 21.3273 83.1678 20.9002C82.4471 20.6867 82.02 21.3273 82.1268 21.9145C65.2044 21.0604 48.5223 22.2081 32.0537 25.7581C35.0164 22.5017 38.3261 19.6724 41.9829 17.3503C51.2181 18.6582 65.6582 14.4142 67.4198 3.81772C67.6067 2.72337 65.9251 2.24292 65.7383 3.36396C64.2702 12.2255 52.8463 16.2025 44.5186 15.8822C46.387 14.868 48.3621 13.9605 50.3907 13.1864C51.4316 12.786 50.9779 11.1312 49.9369 11.5049C47.6148 12.3857 45.3994 13.4266 43.264 14.6278C48.0151 7.10076 59.8661 2.10947 67.9803 2.72337C69.1014 2.80344 69.1014 1.0685 67.9803 0.988425C57.9443 0.241064 44.4118 6.72709 40.4348 16.336C36.2442 19.0852 32.4807 22.4483 29.1977 26.3987C19.7756 28.6141 10.4069 31.6035 1.11826 35.5271C0.10399 35.9542 0.984812 37.4489 1.99909 37.0219C10.9674 33.2317 20.2027 30.1889 29.598 27.8667C29.8383 27.9468 30.1319 27.9201 30.3721 27.6799C40.9152 25.1442 51.6452 23.5427 62.5353 23.0356C70.3025 22.6619 78.043 22.9288 85.7568 23.5694C93.3906 26.0517 100.918 28.881 108.178 32.3242C108.525 32.4843 108.845 32.6712 109.165 32.858C110.58 43.9083 123.552 50.3409 133.668 50.3943C134.389 50.3943 134.682 49.6736 134.415 49.0864C132.333 44.3887 129.958 40.3049 125.687 37.3155C121.497 34.3527 116.479 32.7779 111.621 31.2832C111.194 31.1497 110.873 31.3366 110.713 31.6302C109.432 30.9896 108.098 30.3757 106.79 29.7885C102.359 27.7866 97.848 25.9983 93.2838 24.3167C103.266 25.4645 113.222 27.1994 123.125 29.0411C147.227 33.4986 172.184 38.3297 196.553 36.4613C196.633 36.7816 196.9 37.0752 197.354 37.0752C203.279 37.0752 208.911 38.0361 214.303 39.7978C214.303 39.8245 214.303 39.8512 214.329 39.9045C221.643 51.5954 235.442 55.5457 247.32 47.9387C247.881 47.5917 247.881 46.7909 247.32 46.444C237.898 40.4918 227.462 37.6091 216.305 38.1429L216.251 38.1963ZM172.05 15.0548C166.739 24.2901 154.781 26.6923 144.878 24.7171C148.455 23.7562 152.032 22.9021 155.688 22.2081C156.783 21.9946 156.329 20.313 155.235 20.5266C151.258 21.3006 147.334 22.2348 143.464 23.3025C149.389 16.4428 163.776 15.0014 172.05 15.0548ZM123.632 38.0895C127.769 40.732 130.225 44.3887 132.227 48.6326C123.739 48.0721 113.035 42.894 111.034 34.0324C115.331 36.8884 118.587 40.7587 123.098 43.4011C124.059 43.9616 124.94 42.4669 123.979 41.9064C120.616 39.9312 118.481 36.9685 115.491 34.6196C115.278 34.4595 115.064 34.326 114.85 34.1926C117.893 35.2068 120.909 36.3813 123.632 38.1162V38.0895ZM232.213 20.5799C234.695 19.0318 237.418 17.8307 240.167 16.7898C241.715 16.2025 244.598 14.6278 246.252 14.7879C250.79 15.1883 245.719 22.0213 243.984 23.5961C241.902 25.4645 239.366 26.8257 236.804 27.9201C233.494 29.308 230.104 29.9753 226.634 30.1088C227.782 29.6817 228.93 29.308 230.051 28.8543C231.065 28.4272 230.611 26.7457 229.597 27.1727C227.462 28.0535 225.326 28.8276 223.164 29.5483C225.486 25.9182 228.449 22.9288 232.186 20.6066L232.213 20.5799ZM216.972 40.8121C220.335 42.1199 223.591 43.7214 226.768 45.6966C227.729 46.2838 228.583 44.7891 227.649 44.2019C224.953 42.5203 222.177 41.1057 219.321 39.9045C228.529 39.9846 237.151 42.4936 245.105 47.2447C234.962 52.9033 223.725 49.9405 216.972 40.8121Z" fill="#333333"/>
</svg>
